# xmcd
#
# Track frame offsets: 
#        150
#        25325
#        62850
#        79437
#        110625
#        142587
#        162237
#        182525
#        214575
#        239037
#        259050
#
# Disc length: 4038 seconds
#
# Revision: 2
# Processed by: cddbd v1.5.2PL0 Copyright (c) Steve Scherf et al.
# Submitted via: ExactAudioCopyFreeDBPlugin 1.0
#
DISCID=990fc40b
DTITLE=Whitney Houston - Sweet Emotion - Disc 2 (JM-098 2CD-R)
DYEAR=1900
DGENRE=R&B
TTITLE0=I Wanna Dance With Somebody
TTITLE1=Saving All My Love For You
TTITLE2=How Will I Know
TTITLE3=Medley (-Didn't We Almost Have It All -A House Is Not A Home -
TTITLE3=Where Do Broken Hearts Go)
TTITLE4=All The Man That I Need
TTITLE5=My Name Is Not Susan
TTITLE6=Anymore
TTITLE7=A Song For You
TTITLE8=Who Do You Love
TTITLE9=I'm Your Baby Tonight
TTITLE10=Greatest Love Of All
EXTD=
EXTT0=
EXTT1=
EXTT2=
EXTT3=
EXTT4=
EXTT5=
EXTT6=
EXTT7=
EXTT8=
EXTT9=
EXTT10=
PLAYORDER=
